<svg version="1.1" xmlns="http://www.w3.org/2000/svg" xmlns:xlink="http://www.w3.org/1999/xlink"
  width="98" height="98" viewBox="0,0,800,800">
  <g fill="none" fill-rule="nonzero" stroke="none" stroke-width="1" stroke-linecap="butt"
    stroke-linejoin="miter" stroke-miterlimit="10" stroke-dasharray="" stroke-dashoffset="0"
    font-family="none" font-weight="none" font-size="none" text-anchor="none"
    style="mix-blend-mode: normal">
    <path
      d="M22,30l88,2c56.66667,8 86.66667,37.33333 90,88v160c6.66667,49.33333 40,80 100,92v28h-105c-43.33333,-20 -66.66667,-53.33333 -70,-100v-165c-1.66667,-16.66667 -13.33333,-26.66667 -35,-30h-68z"
      fill="#003365" />
    <path
      d="M22,770l88,-2c56.66667,-8 86.66667,-37.33333 90,-88v-160c6.66667,-49.33333 40,-80 100,-92v-28h-105c-43.33333,20 -66.66667,53.33333 -70,100v165c-1.66667,16.66667 -13.33333,26.66667 -35,30h-68z"
      fill="#003365" />
    <path
      d="M778,770l-88,-2c-56.66667,-8 -86.66667,-37.33333 -90,-88v-160c-6.66667,-49.33333 -40,-80 -100,-92v-28h105c43.33333,20 66.66667,53.33333 70,100v165c1.66667,16.66667 13.33333,26.66667 35,30h68z"
      fill="#fb6703" />
    <path
      d="M778,30l-88,2c-56.66667,8 -86.66667,37.33333 -90,88v160c-6.66667,49.33333 -40,80 -100,92v28h105c43.33333,-20 66.66667,-53.33333 70,-100v-165c1.66667,-16.66667 13.33333,-26.66667 35,-30h68z"
      fill="#fb6703" />
    <path
      d="M5,205c0,-19.32997 15.67003,-35 35,-35c19.32997,0 35,15.67003 35,35c0,19.32997 -15.67003,35 -35,35c-19.32997,0 -35,-15.67003 -35,-35z"
      fill="#003365" />
    <path
      d="M795,205c0,-19.32997 -15.67003,-35 -35,-35c-19.32997,0 -35,15.67003 -35,35c0,19.32997 15.67003,35 35,35c19.32997,0 35,-15.67003 35,-35z"
      fill="#fb6703" />
    <path
      d="M320,400c0,-19.32997 15.67003,-35 35,-35c19.32997,0 35,15.67003 35,35c0,19.32997 -15.67003,35 -35,35c-19.32997,0 -35,-15.67003 -35,-35z"
      fill="#fb6703" />
    <path
      d="M480,400c0,-19.32997 -15.67003,-35 -35,-35c-19.32997,0 -35,15.67003 -35,35c0,19.32997 15.67003,35 35,35c19.32997,0 35,-15.67003 35,-35z"
      fill="#003365" />
  </g>
</svg>